<?xml version="1.0" encoding="UTF-8" standalone="no"?>
<!-- Created with Sodipodi ("http://www.sodipodi.com/") -->

<svg
   id="svg378"
   height="512"
   width="512"
   version="1"
   y="0"
   x="0"
   sodipodi:docname="sy.svg"
   inkscape:version="1.2.2 (b0a8486541, 2022-12-01)"
   xmlns:inkscape="http://www.inkscape.org/namespaces/inkscape"
   xmlns:sodipodi="http://sodipodi.sourceforge.net/DTD/sodipodi-0.dtd"
   xmlns="http://www.w3.org/2000/svg"
   xmlns:svg="http://www.w3.org/2000/svg"
   xmlns:rdf="http://www.w3.org/1999/02/22-rdf-syntax-ns#"
   xmlns:cc="http://creativecommons.org/ns#"
   xmlns:dc="http://purl.org/dc/elements/1.1/">
  <sodipodi:namedview
     id="namedview4631"
     pagecolor="#ffffff"
     bordercolor="#666666"
     borderopacity="1.0"
     inkscape:showpageshadow="2"
     inkscape:pageopacity="0.0"
     inkscape:pagecheckerboard="0"
     inkscape:deskcolor="#d1d1d1"
     showgrid="false"
     inkscape:zoom="2.0058594"
     inkscape:cx="177.72931"
     inkscape:cy="255.75073"
     inkscape:window-width="2560"
     inkscape:window-height="1348"
     inkscape:window-x="0"
     inkscape:window-y="0"
     inkscape:window-maximized="1"
     inkscape:current-layer="flag" />
  <metadata
     id="metadata3619">
    <rdf:RDF>
      <cc:Work
         rdf:about="">
        <dc:format>image/svg+xml</dc:format>
        <dc:type
           rdf:resource="http://purl.org/dc/dcmitype/StillImage" />
      </cc:Work>
    </rdf:RDF>
  </metadata>
  <defs
     id="defs380">
    <clipPath
       id="clipPath3830"
       clipPathUnits="userSpaceOnUse">
      <rect
         id="rect3832"
         fill-opacity="0.67"
         height="512"
         width="512"
         y="0"
         x="0" />
    </clipPath>
  </defs>
  <g
     id="flag"
     fill-rule="evenodd"
     clip-path="url(#clipPath3830)">
    <rect
       id="rect171"
       rx="0"
       ry="0"
       height="512"
       width="512"
       y="5.7732e-15"
       x="0"
       fill="#fff" />
    <rect
       id="rect256"
       rx="0"
       ry="0"
       height="169.92"
       width="512"
       y="342.08"
       x="-3.457e-7"
       fill="#fff" />
    <rect
       id="rect255"
       height="169.92"
       width="512"
       y=".000034857"
       x="-3.457e-7"
       fill="#fff" />
    <path
       id="path205"
       d="m151.36 299.73-30.743-22.258-30.592 22.476 11.378-36.525-30.536-22.554 37.779-0.31446 11.718-36.414 11.969 36.33 37.779 0.0479-30.38 22.767 11.629 36.444z"
       fill="#fff" />
    <path
       id="path583"
       d="m436.84 299.73-30.743-22.258-30.592 22.476 11.378-36.525-30.536-22.554 37.779-0.31446 11.718-36.414 11.969 36.33 37.779 0.0479-30.38 22.767 11.629 36.444z"
       fill="#fff" />
    <rect
       id="rect7524"
       rx="0"
       ry="0"
       height="169.92"
       width="512"
       y="342.08"
       x="-3.457e-7"
       stroke-width="1pt" />
    <rect
       id="rect7526"
       height="169.92"
       width="512"
       y=".000034857"
       x="-3.457e-7"
       stroke-width="1pt"
       fill="#f00"
       style="fill:#007a3d;fill-opacity:1" />
    <path
       id="path7528"
       d="m151.36 299.73-30.743-22.258-30.592 22.476 11.378-36.525-30.536-22.554 37.779-0.31446 11.718-36.414 11.969 36.33 37.779 0.0479-30.38 22.767 11.629 36.444z"
       stroke-width=".11287"
       fill="#090"
       style="fill:#ce1126;fill-opacity:1" />
    <path
       id="path7530"
       d="m436.84 299.73-30.743-22.258-30.592 22.476 11.378-36.525-30.536-22.554 37.779-0.31446 11.718-36.414 11.969 36.33 37.779 0.0479-30.38 22.767 11.629 36.444z"
       stroke-width=".11287"
       fill="#090"
       style="fill:#ce1126;fill-opacity:1" />
    <path
       id="path7530-6"
       d="m 294.1,299.73046 -30.743,-22.258 -30.592,22.476 11.378,-36.525 -30.536,-22.554 37.779,-0.31446 11.718,-36.414 11.969,36.33 37.779,0.0479 -30.38,22.767 11.629,36.444 z"
       stroke-width="0.11287"
       fill="#090"
       style="fill:#ce1126;fill-opacity:1" />
  </g>
</svg>
