<?xml version="1.0" encoding="UTF-8" standalone="no"?>
<!-- Created with Sodipodi ("http://www.sodipodi.com/") -->

<svg
   id="svg378"
   height="480"
   width="640"
   version="1"
   y="0"
   x="0"
   sodipodi:docname="sy.svg"
   inkscape:version="1.2.2 (b0a8486541, 2022-12-01)"
   xmlns:inkscape="http://www.inkscape.org/namespaces/inkscape"
   xmlns:sodipodi="http://sodipodi.sourceforge.net/DTD/sodipodi-0.dtd"
   xmlns="http://www.w3.org/2000/svg"
   xmlns:svg="http://www.w3.org/2000/svg"
   xmlns:rdf="http://www.w3.org/1999/02/22-rdf-syntax-ns#"
   xmlns:cc="http://creativecommons.org/ns#"
   xmlns:dc="http://purl.org/dc/elements/1.1/">
  <defs
     id="defs2277" />
  <sodipodi:namedview
     id="namedview2275"
     pagecolor="#ffffff"
     bordercolor="#666666"
     borderopacity="1.0"
     inkscape:showpageshadow="2"
     inkscape:pageopacity="0.0"
     inkscape:pagecheckerboard="0"
     inkscape:deskcolor="#d1d1d1"
     showgrid="false"
     inkscape:zoom="2.021875"
     inkscape:cx="242.5966"
     inkscape:cy="239.87635"
     inkscape:window-width="2560"
     inkscape:window-height="1348"
     inkscape:window-x="0"
     inkscape:window-y="0"
     inkscape:window-maximized="1"
     inkscape:current-layer="flag" />
  <metadata
     id="metadata3619">
    <rdf:RDF>
      <cc:Work
         rdf:about="">
        <dc:format>image/svg+xml</dc:format>
        <dc:type
           rdf:resource="http://purl.org/dc/dcmitype/StillImage" />
      </cc:Work>
    </rdf:RDF>
  </metadata>
  <g
     id="flag"
     fill-rule="evenodd">
    <rect
       id="rect171"
       rx="0"
       ry="0"
       height="480"
       width="640"
       y=".0000010549"
       x="-2.1606e-8"
       fill="#fff" />
    <rect
       id="rect256"
       rx="0"
       ry="0"
       height="159.3"
       width="480"
       y="320.7"
       x="-3.457e-7"
       fill="#fff" />
    <rect
       id="rect255"
       height="159.3"
       width="480"
       y=".000033733"
       x="-3.457e-7"
       fill="#fff" />
    <path
       id="path205"
       d="m201.9 281-28.822-20.867-28.68 21.072 10.667-34.242-28.628-21.145 35.418-0.2948 10.985-34.138 11.221 34.06 35.418 0.0449-28.481 21.344 10.902 34.166z"
       fill="#fff" />
    <path
       id="path583"
       d="m509.54 281-28.822-20.867-28.68 21.072 10.667-34.242-28.628-21.145 35.418-0.2948 10.985-34.138 11.221 34.06 35.418 0.0449-28.481 21.344 10.902 34.166z"
       fill="#fff" />
    <rect
       id="rect7524"
       rx="0"
       ry="0"
       height="159.3"
       width="640"
       y="320.7"
       x="-3.457e-7"
       stroke-width="1pt" />
    <rect
       id="rect7526"
       height="159.3"
       width="640"
       y=".000033733"
       x="-3.457e-7"
       stroke-width="1pt"
       fill="#f00"
       style="fill:#007a3d;fill-opacity:1" />
    <path
       id="path7528"
       d="m201.9 281-28.822-20.867-28.68 21.072 10.667-34.242-28.628-21.145 35.418-0.2948 10.985-34.138 11.221 34.06 35.418 0.0449-28.481 21.344 10.902 34.166z"
       stroke-width=".11287"
       fill="#090"
       style="fill:#ce1126;fill-opacity:1" />
    <path
       id="path7530"
       d="m509.54 281-28.822-20.867-28.68 21.072 10.667-34.242-28.628-21.145 35.418-0.2948 10.985-34.138 11.221 34.06 35.418 0.0449-28.481 21.344 10.902 34.166z"
       stroke-width=".11287"
       fill="#090"
       style="fill:#ce1126;fill-opacity:1" />
    <path
       id="path7530-3"
       d="m 355.72,280.9998 -28.822,-20.867 -28.68,21.072 10.667,-34.242 -28.628,-21.145 35.418,-0.2948 10.985,-34.138 11.221,34.06 35.418,0.0449 -28.481,21.344 10.902,34.166 z"
       stroke-width="0.11287"
       fill="#009900"
       style="fill:#ce1126;fill-opacity:1" />
  </g>
</svg>
